name rise44.9368peak50.754fall52.0217.mot
datacolumns 19
datarows 35
range 9.54663800000000 9.60330800000000
endheader
time	ground_force1_vx	ground_force1_vy	ground_force1_vz	ground_force1_px	ground_force1_py	ground_force1_pz	ground_force2_vx	ground_force2_vy	ground_force2_vz	ground_force2_px	ground_force2_py	ground_force2_pz	ground_torque1_x	ground_torque1_y	ground_torque1_z	ground_torque2_x	ground_torque2_y	ground_torque2_z	
9.54663800000000	-58.21684000000000	819.05541100000005	71.94672300000001	0.13911200000000	0.00000000000000	0.13413800000000	-7.92242400000000	72.42926900000001	17.49829400000000	0.41998300000000	0.00000000000000	-0.06666700000000	0.00000000000000	33.53836700000000	0.00000000000000	0.00000000000000	14.36624800000000	0.00000000000000	
9.54830300000000	-58.49173200000000	815.61273200000005	71.48536500000000	0.13861800000000	0.00000000000000	0.13401300000000	-7.83235800000000	76.60341300000000	17.83446000000000	0.42237000000000	0.00000000000000	-0.06721100000000	0.00000000000000	33.36089200000000	0.00000000000000	0.00000000000000	14.72400500000000	0.00000000000000	
9.54997000000000	-58.77792200000000	812.03786600000001	71.00067500000000	0.13813500000000	0.00000000000000	0.13388500000000	-7.65341200000000	80.59737100000000	18.04551600000000	0.42467700000000	0.00000000000000	-0.06773700000000	0.00000000000000	33.18332900000000	0.00000000000000	0.00000000000000	14.98516000000000	0.00000000000000	
9.55163900000000	-59.07547400000000	808.33205399999997	70.49298899999999	0.13766300000000	0.00000000000000	0.13375300000000	-7.39705400000000	84.46350800000000	18.15169700000000	0.42690400000000	0.00000000000000	-0.06824500000000	0.00000000000000	33.00582800000000	0.00000000000000	0.00000000000000	15.16532000000000	0.00000000000000	
9.55330100000000	-59.38440600000000	804.49661300000002	69.96266100000000	0.13720200000000	0.00000000000000	0.13361800000000	-7.07490500000000	88.25690600000000	18.17357600000000	0.42905000000000	0.00000000000000	-0.06873800000000	0.00000000000000	32.82852400000000	0.00000000000000	0.00000000000000	15.28056000000000	0.00000000000000	
9.55496800000000	-59.70468600000000	800.53293099999996	69.41006299999999	0.13675100000000	0.00000000000000	0.13348000000000	-6.69791900000000	92.03107300000001	18.13058100000000	0.43111600000000	0.00000000000000	-0.06921800000000	0.00000000000000	32.65153500000000	0.00000000000000	0.00000000000000	15.34621000000000	0.00000000000000	
9.55663300000000	-60.03623000000000	796.44246599999997	68.83558300000000	0.13630900000000	0.00000000000000	0.13333900000000	-6.27575300000000	95.83448000000000	18.03984900000000	0.43310300000000	0.00000000000000	-0.06968700000000	0.00000000000000	32.47496100000000	0.00000000000000	0.00000000000000	15.37589200000000	0.00000000000000	
9.55829800000000	-60.37890400000000	792.22674099999995	68.23962700000000	0.13587700000000	0.00000000000000	0.13319400000000	-5.81635000000000	99.70807300000000	17.91545100000000	0.43500900000000	0.00000000000000	-0.07014400000000	0.00000000000000	32.29888600000000	0.00000000000000	0.00000000000000	15.38085600000000	0.00000000000000	
9.55996400000000	-60.73251700000000	787.88733600000000	67.62261400000000	0.13545300000000	0.00000000000000	0.13304500000000	-5.32572400000000	103.68375800000000	17.76797300000000	0.43683600000000	0.00000000000000	-0.07059200000000	0.00000000000000	32.12337600000000	0.00000000000000	0.00000000000000	15.36960300000000	0.00000000000000	
9.56163000000000	-61.09682700000000	783.42588599999999	66.98497700000000	0.13503600000000	0.00000000000000	0.13289300000000	-4.80792800000000	107.78381899999999	17.60443600000000	0.43858100000000	0.00000000000000	-0.07103200000000	0.00000000000000	31.94847800000000	0.00000000000000	0.00000000000000	15.34777800000000	0.00000000000000	
9.56330500000000	-61.47153300000000	778.84407599999997	66.32716400000000	0.13462700000000	0.00000000000000	0.13273700000000	-4.26518100000000	112.02112000000000	17.42848200000000	0.44024500000000	0.00000000000000	-0.07146400000000	0.00000000000000	31.77422400000000	0.00000000000000	0.00000000000000	15.31829400000000	0.00000000000000	
9.56496700000000	-61.85628100000000	774.14363600000001	65.64963200000000	0.13422400000000	0.00000000000000	0.13257700000000	-3.69810100000000	116.39995999999999	17.24078300000000	0.44182800000000	0.00000000000000	-0.07189000000000	0.00000000000000	31.60062600000000	0.00000000000000	0.00000000000000	15.28163600000000	0.00000000000000	
9.56663700000000	-62.25065600000000	769.32633599999997	64.95285400000000	0.13382700000000	0.00000000000000	0.13241300000000	-3.10602500000000	120.91737200000000	17.03958500000000	0.44333000000000	0.00000000000000	-0.07230900000000	0.00000000000000	31.42767700000000	0.00000000000000	0.00000000000000	15.23628700000000	0.00000000000000	
9.56829700000000	-62.65418800000000	764.39397899999994	64.23731100000001	0.13343400000000	0.00000000000000	0.13224500000000	-2.48736100000000	125.56470200000000	16.82133100000000	0.44474900000000	0.00000000000000	-0.07272300000000	0.00000000000000	31.25535600000000	0.00000000000000	0.00000000000000	15.17922900000000	0.00000000000000	
9.56997200000000	-63.06634700000000	759.34840099999997	63.50349500000000	0.13304500000000	0.00000000000000	0.13207400000000	-1.83994600000000	130.32929300000001	16.58130100000000	0.44608500000000	0.00000000000000	-0.07313200000000	0.00000000000000	31.08362000000000	0.00000000000000	0.00000000000000	15.10646300000000	0.00000000000000	
9.57163400000000	-63.48654300000000	754.19146400000000	62.75190900000000	0.13266000000000	0.00000000000000	0.13189800000000	-1.16138900000000	135.19613500000000	16.31421200000000	0.44733800000000	0.00000000000000	-0.07353600000000	0.00000000000000	30.91241300000000	0.00000000000000	0.00000000000000	15.01350200000000	0.00000000000000	
9.57330500000000	-63.91412800000000	748.92504899999994	61.98306500000000	0.13227600000000	0.00000000000000	0.13171800000000	-0.44935700000000	140.14935600000001	16.01475500000000	0.44850900000000	0.00000000000000	-0.07393700000000	0.00000000000000	30.74166000000000	0.00000000000000	0.00000000000000	14.89581500000000	0.00000000000000	
9.57497000000000	-64.34839400000000	743.55105800000001	61.19748300000000	0.13189300000000	0.00000000000000	0.13153400000000	0.29818100000000	145.17348400000000	15.67802700000000	0.44959600000000	0.00000000000000	-0.07433300000000	0.00000000000000	30.57126900000000	0.00000000000000	0.00000000000000	14.74919600000000	0.00000000000000	
9.57663200000000	-64.78857300000000	738.07140200000003	60.39569300000000	0.13151000000000	0.00000000000000	0.13134500000000	1.08278400000000	150.25443000000001	15.29985300000000	0.45060000000000	0.00000000000000	-0.07472600000000	0.00000000000000	30.40113300000000	0.00000000000000	0.00000000000000	14.57003100000000	0.00000000000000	
9.57829700000000	-65.23383800000001	732.48800200000005	59.57823100000000	0.13112700000000	0.00000000000000	0.13115200000000	1.90543100000000	155.38016900000000	14.87700100000000	0.45152000000000	0.00000000000000	-0.07511600000000	0.00000000000000	30.23112900000000	0.00000000000000	0.00000000000000	14.35548900000000	0.00000000000000	
9.57996700000000	-65.68330300000000	726.80278399999997	58.74564400000000	0.13074100000000	0.00000000000000	0.13095500000000	2.76646600000000	160.54113599999999	14.40728000000000	0.45235700000000	0.00000000000000	-0.07550300000000	0.00000000000000	30.06111900000000	0.00000000000000	0.00000000000000	14.10361200000000	0.00000000000000	
9.58163100000000	-66.13602200000000	721.01767099999995	57.89848500000000	0.13035300000000	0.00000000000000	0.13075300000000	3.66560900000000	165.73035800000000	13.88956000000000	0.45311100000000	0.00000000000000	-0.07588700000000	0.00000000000000	29.89095200000000	0.00000000000000	0.00000000000000	13.81332800000000	0.00000000000000	
9.58329900000000	-66.59099300000000	715.13458700000001	57.03731500000000	0.12996000000000	0.00000000000000	0.13054700000000	4.60199300000000	170.94336799999999	13.32369900000000	0.45378200000000	0.00000000000000	-0.07626800000000	0.00000000000000	29.72046100000000	0.00000000000000	0.00000000000000	13.48440900000000	0.00000000000000	
9.58496900000000	-67.04715800000000	709.15544599999998	56.16270100000000	0.12956300000000	0.00000000000000	0.13033600000000	5.57424400000000	176.17795200000000	12.71042800000000	0.45437100000000	0.00000000000000	-0.07664600000000	0.00000000000000	29.54946900000000	0.00000000000000	0.00000000000000	13.11737100000000	0.00000000000000	
9.58663600000000	-67.50340100000000	703.08215099999995	55.27522100000000	0.12915900000000	0.00000000000000	0.13012100000000	6.58057600000000	181.43378100000001	12.05119400000000	0.45487700000000	0.00000000000000	-0.07702200000000	0.00000000000000	29.37778500000000	0.00000000000000	0.00000000000000	12.71334600000000	0.00000000000000	
9.58829800000000	-67.95855200000000	696.91659100000004	54.37545700000000	0.12874800000000	0.00000000000000	0.12990100000000	7.61888900000000	186.71198200000001	11.34798700000000	0.45530300000000	0.00000000000000	-0.07739400000000	0.00000000000000	29.20520700000000	0.00000000000000	0.00000000000000	12.27393800000000	0.00000000000000	
9.58996500000000	-68.41139000000000	690.66063799999995	53.46400000000000	0.12832900000000	0.00000000000000	0.12967700000000	8.68687700000000	192.01468100000000	10.60316600000000	0.45564800000000	0.00000000000000	-0.07776400000000	0.00000000000000	29.03152400000000	0.00000000000000	0.00000000000000	11.80108300000000	0.00000000000000	
9.59163500000000	-68.86064200000000	684.31614200000001	52.54144900000000	0.12790100000000	0.00000000000000	0.12944800000000	9.78212100000000	197.34458000000001	9.81930200000000	0.45591300000000	0.00000000000000	-0.07813100000000	0.00000000000000	28.85651300000000	0.00000000000000	0.00000000000000	11.29690700000000	0.00000000000000	
9.59330500000000	-69.30498799999999	677.88493200000005	51.60841000000000	0.12746200000000	0.00000000000000	0.12921400000000	10.90216900000000	202.70457700000000	8.99903300000000	0.45610000000000	0.00000000000000	-0.07849500000000	0.00000000000000	28.67994600000000	0.00000000000000	0.00000000000000	10.76361200000000	0.00000000000000	
9.59497000000000	-69.74305900000000	671.36881000000005	50.66549700000000	0.12701200000000	0.00000000000000	0.12897600000000	12.04460600000000	208.09744800000001	8.14495500000000	0.45620900000000	0.00000000000000	-0.07885600000000	0.00000000000000	28.50158400000000	0.00000000000000	0.00000000000000	10.20338000000000	0.00000000000000	
9.59664500000000	-70.17344400000000	664.76955099999998	49.71333300000000	0.12655000000000	0.00000000000000	0.12873300000000	13.20709800000000	213.52561900000001	7.25954100000000	0.45624200000000	0.00000000000000	-0.07921300000000	0.00000000000000	28.32118400000000	0.00000000000000	0.00000000000000	9.61830300000000	0.00000000000000	
9.59830000000000	-70.59469100000000	658.08890499999995	48.75254600000000	0.12607400000000	0.00000000000000	0.12848600000000	14.38742400000000	218.99100899999999	6.34509200000000	0.45620100000000	0.00000000000000	-0.07956800000000	0.00000000000000	28.13849800000000	0.00000000000000	0.00000000000000	9.01033800000000	0.00000000000000	
9.59997000000000	-71.00531200000000	651.32859199999996	47.78377600000000	0.12558400000000	0.00000000000000	0.12823400000000	15.58349600000000	224.49495600000000	5.40370800000000	0.45608600000000	0.00000000000000	-0.07991800000000	0.00000000000000	27.95327000000000	0.00000000000000	0.00000000000000	8.38128400000000	0.00000000000000	
9.60163100000000	-71.40378200000001	644.49030400000004	46.80767000000000	0.12508000000000	0.00000000000000	0.12797700000000	16.79335400000000	230.03820400000001	4.43729200000000	0.45590000000000	0.00000000000000	-0.08026500000000	0.00000000000000	27.76524600000000	0.00000000000000	0.00000000000000	7.73278400000000	0.00000000000000	
9.60330800000000	-71.78854600000000	637.57570999999996	45.82488200000000	0.12455900000000	0.00000000000000	0.12771600000000	18.01516400000000	235.62094700000000	3.44756800000000	0.45564300000000	0.00000000000000	-0.08060800000000	0.00000000000000	27.57416500000000	0.00000000000000	0.00000000000000	7.06633500000000	0.00000000000000	
